Coordinates
version=1
nRows=19
nColumns=24
inDegrees=yes

Units are S.I. units (second, meters, Newtons, ...)
Angles are in degrees.

endheader
time	pelvis_tilt	pelvis_list	pelvis_rotation	pelvis_tx	pelvis_ty	pelvis_tz	hip_flexion_r	hip_adduction_r	hip_rotation_r	knee_angle_r	ankle_angle_r	subtalar_angle_r	mtp_angle_r	hip_flexion_l	hip_adduction_l	hip_rotation_l	knee_angle_l	ankle_angle_l	subtalar_angle_l	mtp_angle_l	lumbar_extension	lumbar_bending	lumbar_rotation
      8.14000000	      6.96254417	     -5.60792505	     -2.04612793	      1.63204056	      0.92615709	     -0.19077852	    -17.62569484	      8.81922316	      3.43727674	    -12.92575536	     18.13466066	      3.13347503	      0.00000000	     10.73920820	     -3.92667604	     -5.15953674	     -3.40248098	      2.34120032	     -0.44495856	      0.00000000	    -26.24508586	      4.40310827	      7.57609336
      8.15000000	      7.04710845	     -5.44402493	     -2.17004373	      1.64200947	      0.92630811	     -0.19209439	    -17.70528998	      8.46898058	      3.37728814	    -14.13401138	     17.64528451	      3.33290475	      0.00000000	     10.43905564	     -3.64161817	     -4.08364705	     -4.07069906	      0.87926205	     -1.53105049	      0.00000000	    -26.16467248	      4.18196572	      7.53236037
      8.16000000	      7.15516925	     -5.23445603	     -2.27266711	      1.65203422	      0.92672567	     -0.19342953	    -17.70017023	      8.07488139	      3.20220781	    -15.51889353	     16.99153544	      3.54351692	      0.00000000	     10.10372938	     -3.30631154	     -3.15008019	     -4.68146260	     -0.62221283	     -2.60316348	      0.00000000	    -26.10385875	      3.90761533	      7.43759521
      8.17000000	      7.28286148	     -4.99812766	     -2.33804360	      1.66208256	      0.92738190	     -0.19478680	    -17.59402918	      7.65660314	      2.85821914	    -17.08882892	     16.12219752	      3.74949291	      0.00000000	      9.76314649	     -2.94252395	     -2.36845182	     -5.31489656	     -1.96033790	     -3.64368729	      0.00000000	    -26.05952314	      3.60691833	      7.29933521
      8.18000000	      7.42970346	     -4.75271989	     -2.35637016	      1.67212580	      0.92823265	     -0.19617397	    -17.37905994	      7.23173914	      2.34484076	    -18.84732714	     15.02147356	      3.93069284	      0.00000000	      9.43212720	     -2.56825469	     -1.77105615	     -6.02909212	     -2.94357899	     -4.61320367	      0.00000000	    -26.03561632	      3.30293711	      7.10678554
      8.19000000	      7.58720843	     -4.51652603	     -2.32272891	      1.68212293	      0.92923380	     -0.19760780	    -17.04646621	      6.81704107	      1.68669490	    -20.77792964	     13.66695000	      4.05265341	      0.00000000	      9.12008717	     -2.20119295	     -1.36752979	     -6.84357378	     -3.48000594	     -5.39187618	      0.00000000	    -26.02966249	      3.02422156	      6.85621537
      8.20000000	      7.74872533	     -4.29089692	     -2.25879242	      1.69204866	      0.93034139	     -0.19908183	    -16.57937814	      6.39984898	      0.91010512	    -22.88314189	     12.02919263	      4.07330185	      0.00000000	      8.79875869	     -1.84288442	     -1.14800279	     -7.69932950	     -3.54229767	     -5.90031691	      0.00000000	    -26.03419806	      2.76967396	      6.57183111
      8.21000000	      7.91401701	     -4.06067334	     -2.18219816	      1.70186576	      0.93152378	     -0.20059917	    -15.97618343	      5.94872222	      0.03565761	    -25.14540995	     10.07905365	      4.02880518	      0.00000000	      8.44547508	     -1.47064858	     -1.00839771	     -8.54880580	     -3.26905328	     -6.22092768	      0.00000000	    -26.05879224	      2.51623397	      6.28710995
      8.22000000	      8.03158068	     -3.84158094	     -2.10035177	      1.71155842	      0.93265050	     -0.20218618	    -15.17341465	      5.47412127	     -0.90561416	    -27.56604633	      7.82430305	      3.83327382	      0.00000000	      8.08248124	     -1.09268905	     -0.83466724	     -9.31211158	     -2.71951084	     -6.50428260	      0.00000000	    -26.03757151	      2.30760022	      5.95502350
      8.23000000	      8.06246255	     -3.65570338	     -2.06001955	      1.72107999	      0.93364101	     -0.20373582	    -14.14326494	      5.02589276	     -1.69446985	    -30.10272266	      5.14181706	      3.17742558	      0.00000000	      7.75678969	     -0.74523304	     -0.69831165	     -9.98458319	     -1.94613282	     -6.75968622	      0.00000000	    -25.93689317	      2.14558453	      5.63880833
      8.24000000	      8.09434535	     -3.46924126	     -2.10008086	      1.73042493	      0.93460237	     -0.20520226	    -12.98221675	      4.53727316	     -2.36720211	    -32.73723732	      2.07195187	      2.30291457	      0.00000000	      7.34382030	     -0.39654758	     -0.62368331	    -10.49998058	     -1.16222695	     -6.89117952	      0.00000000	    -25.87056018	      1.96326800	      5.39169986
      8.25000000	      8.09079841	     -3.30095454	     -2.22320892	      1.73957919	      0.93544155	     -0.20656557	    -11.66291169	      4.04810149	     -2.87105579	    -35.44313652	     -1.33291634	      1.14851329	      0.00000000	      6.90699375	     -0.06551341	     -0.59637257	    -10.89073167	     -0.37737017	     -7.06009556	      0.00000000	    -25.80007383	      1.79352780	      5.17591276
      8.26000000	      8.05498702	     -3.15933253	     -2.45171729	      1.74852373	      0.93615359	     -0.20777107	    -10.20298116	      3.59000837	     -3.12829467	    -38.19279737	     -5.01371759	     -0.27911685	      0.00000000	      6.45100400	      0.23658195	     -0.60481507	    -11.17076411	      0.37340187	     -7.31390221	      0.00000000	    -25.73572770	      1.63557222	      5.03034911
      8.27000000	      7.98489093	     -3.03753151	     -2.76842735	      1.75725338	      0.93673540	     -0.20880594	     -8.61553506	      3.17855957	     -3.15586611	    -40.96318256	     -8.80425766	     -1.87804595	      0.00000000	      5.99700172	      0.51488212	     -0.64911836	    -11.36433416	      1.05511032	     -7.65403796	      0.00000000	    -25.67486286	      1.47790320	      4.90659373
      8.28000000	      7.92160264	     -2.96695201	     -3.15097698	      1.76575298	      0.93726439	     -0.20968538	     -6.97463939	      2.86284661	     -2.98951551	    -43.70010713	    -12.52411813	     -3.57449109	      0.00000000	      5.52322271	      0.73756353	     -0.70060022	    -11.51951401	      1.72013236	     -8.04156209	      0.00000000	    -25.67632610	      1.36578106	      4.89725392
      8.29000000	      7.82703621	     -2.90312648	     -3.56343404	      1.77406107	      0.93769778	     -0.21042692	     -5.25393793	      2.62015184	     -2.67679003	    -46.39152233	    -15.85198605	     -5.23109580	      0.00000000	      5.08226585	      0.94672185	     -0.78599242	    -11.64527249	      2.32457824	     -8.44647042	      0.00000000	    -25.67272923	      1.25521640	      4.82164826
      8.30000000	      7.75923685	     -2.89628594	     -3.93107514	      1.78218095	      0.93815198	     -0.21112082	     -3.56177098	      2.50101675	     -2.34735010	    -48.94958670	    -18.59949120	     -6.80769423	      0.00000000	      4.63215701	      1.09379249	     -0.83270716	    -11.78531687	      2.94958409	     -8.80757248	      0.00000000	    -25.74206568	      1.22882063	      4.75002543
      8.31000000	      7.66984891	     -2.88112488	     -4.26184676	      1.79016153	      0.93856448	     -0.21175266	     -1.85082846	      2.44201305	     -2.00772390	    -51.37049706	    -20.41981653	     -8.24069324	      0.00000000	      4.21406309	      1.24010025	     -0.89148543	    -11.90955004	      3.52098730	     -9.10170845	      0.00000000	    -25.79541799	      1.20476036	      4.56952656
      8.32000000	      7.60548107	     -2.90967729	     -4.48751371	      1.79802605	      0.93903764	     -0.21241400	     -0.21631883	      2.47974993	     -1.77746297	    -53.55860405	    -21.28809368	     -9.56158867	      0.00000000	      3.78672511	      1.33522822	     -0.89417078	    -12.04378418	      4.10129342	     -9.29705350	      0.00000000	    -25.89361130	      1.26675673	      4.31329712
